<svg width="17" height="20" viewBox="0 0 17 20" fill="none" xmlns="http://www.w3.org/2000/svg">
<path d="M15.7273 8.36315C15.7273 14.0904 8.36364 18.9995 8.36364 18.9995C8.36364 18.9995 1 14.0904 1 8.36315C1 6.41019 1.77581 4.53722 3.15676 3.15627C4.53771 1.77532 6.41068 0.999512 8.36364 0.999512C10.3166 0.999512 12.1896 1.77532 13.5705 3.15627C14.9515 4.53722 15.7273 6.41019 15.7273 8.36315Z" stroke="#28E98C" stroke-linecap="round" stroke-linejoin="round"/>
<path d="M8.36372 10.8178C9.71933 10.8178 10.8183 9.71885 10.8183 8.36324C10.8183 7.00763 9.71933 5.90869 8.36372 5.90869C7.00812 5.90869 5.90918 7.00763 5.90918 8.36324C5.90918 9.71885 7.00812 10.8178 8.36372 10.8178Z" stroke="#28E98C" stroke-linecap="round" stroke-linejoin="round"/>
</svg>
