<svg width="19" height="18" viewBox="0 0 19 18" fill="none" xmlns="http://www.w3.org/2000/svg">
<path d="M3.93068 -0.000488281C3.56896 -0.000488281 3.21208 0.129539 2.91467 0.366768L2.87179 0.388209L2.85035 0.410341L0.689002 2.63671L0.710442 2.65745C0.393311 2.94542 0.168612 3.32089 0.0647187 3.73647C-0.0391749 4.15204 -0.0176051 4.58908 0.126705 4.99241C0.129471 4.99794 0.123938 5.00831 0.126705 5.01385C0.713209 6.69175 2.21267 9.93135 5.14104 12.8597C8.08048 15.7992 11.363 17.2391 12.9869 17.8741H13.0084C13.4153 18.0086 13.8502 18.0355 14.2707 17.9521C14.6911 17.8687 15.0828 17.6779 15.4076 17.3982L17.5904 15.2154C18.1631 14.6428 18.1631 13.6482 17.5904 13.0755L14.781 10.2661L14.7589 10.2225C14.1862 9.64986 13.1709 9.64986 12.5975 10.2225L11.2143 11.6058C10.1762 11.1071 9.2213 10.4511 8.38341 9.66092C7.25121 8.5799 6.67301 7.33704 6.45998 6.85082L7.84325 5.46756C8.42422 4.88659 8.43459 3.91968 7.82112 3.34978L7.84256 3.32765L7.77823 3.26332L5.0117 0.410341L4.99026 0.388901L4.94669 0.366768C4.65964 0.132376 4.30126 0.00283379 3.93068 -0.000488281ZM3.93068 1.38278C3.98722 1.38606 4.04082 1.40907 4.08215 1.44779L6.84868 4.27864L6.91369 4.34365C6.90816 4.33812 6.95381 4.41143 6.87012 4.49512L5.14104 6.2242L4.81666 6.52714L4.96882 6.95872C4.96882 6.95872 5.76282 9.08549 7.43242 10.6769L7.58389 10.8063C9.19055 12.2732 11.0849 13.0755 11.0849 13.0755L11.5172 13.2706L13.5707 11.2164C13.6896 11.0981 13.6675 11.0981 13.7864 11.2164L16.618 14.0493C16.7369 14.1676 16.7369 14.1247 16.618 14.243L14.4995 16.3615C14.1814 16.6347 13.8432 16.6914 13.4413 16.5565C11.8741 15.9403 8.82882 14.6026 6.11347 11.888C3.37669 9.1505 1.94777 6.04645 1.42421 4.53939C1.31839 4.25789 1.39377 3.84222 1.64 3.63127L1.68288 3.5877L3.77991 1.44848C3.82078 1.4098 3.87385 1.38657 3.92999 1.38278H3.93068Z" fill="#28E98C"/>
</svg>
